<?xml version="1.0" encoding="utf-8"?>
<!-- Generator: Adobe Illustrator 17.1.0, SVG Export Plug-In . SVG Version: 6.00 Build 0)  -->
<!DOCTYPE svg PUBLIC "-//W3C//DTD SVG 1.1//EN" "http://www.w3.org/Graphics/SVG/1.1/DTD/svg11.dtd">
<svg version="1.1" id="Слой_1" xmlns="http://www.w3.org/2000/svg" xmlns:xlink="http://www.w3.org/1999/xlink" x="0px" y="0px"
	 viewBox="0 0 482 482" enable-background="new 0 0 482 482" xml:space="preserve">
<g>
	<path fill-rule="evenodd" clip-rule="evenodd" d="M482,241C482,107.9,374.1,0,241,0c0,0,0,0,0,0h0C107.9,0,0,107.9,0,241
		c0,133.1,107.9,241,241,241C374.1,482,482,374.1,482,241C482,241,482,241,482,241C482,241,482,241,482,241z M248.5,466.8v-7.4
		c0-4.2-3.4-7.5-7.5-7.5c-4.2,0-7.5,3.4-7.5,7.5v7.4c-118.8-3.9-214.4-99.5-218.3-218.3h7.4c4.2,0,7.5-3.4,7.5-7.5
		c0-4.2-3.4-7.5-7.5-7.5h-7.4c3.9-118.8,99.5-214.4,218.3-218.3v7.4c0,4.2,3.4,7.5,7.5,7.5c4.2,0,7.5-3.4,7.5-7.5v-7.4
		c118.8,3.9,214.4,99.5,218.3,218.3h-7.4c-4.2,0-7.5,3.4-7.5,7.5c0,4.2,3.4,7.5,7.5,7.5h7.4C462.9,367.3,367.3,462.9,248.5,466.8z
		 M241,210.9c-16.6,0-30.1,13.5-30.1,30.1c0,16.6,13.5,30.1,30.1,30.1c16.6,0,30.1-13.5,30.1-30.1
		C271.1,224.4,257.6,210.9,241,210.9z M241,256.1c-8.3,0-15.1-6.7-15.1-15.1c0-8.3,6.7-15.1,15.1-15.1c8.3,0,15.1,6.7,15.1,15.1
		C256.1,249.3,249.3,256.1,241,256.1z M248.5,90.4c0-4.2-3.4-7.5-7.5-7.5c-4.2,0-7.5,3.4-7.5,7.5v105.4h15.1V90.4z M144.1,184.4
		c-2.2,3.6-1,8.2,2.5,10.3l51.5,31.2l7.8-12.9l-51.5-31.2C150.9,179.7,146.3,180.9,144.1,184.4z"/>
</g>
</svg>
