<?xml version="1.0" encoding="utf-8"?>
<!-- Generator: Adobe Illustrator 17.1.0, SVG Export Plug-In . SVG Version: 6.00 Build 0)  -->
<!DOCTYPE svg PUBLIC "-//W3C//DTD SVG 1.1//EN" "http://www.w3.org/Graphics/SVG/1.1/DTD/svg11.dtd">
<svg version="1.1" id="Слой_1" xmlns="http://www.w3.org/2000/svg" xmlns:xlink="http://www.w3.org/1999/xlink" x="0px" y="0px"
	 viewBox="0 0 482 482" enable-background="new 0 0 482 482" xml:space="preserve">
<path fill-rule="evenodd" clip-rule="evenodd" d="M46.2,121.5l174,112c0,0,3-11.6,15-12s26,4.7,26,11c0,6.3-5,28-5,28
	s-20.8,3.1-29-2c-8.2-5.1-191,97-191,97s60.3,108.4,160,115c99.7,6.6,186.7-17,220-73c33.3-56,78.7-134.4,52-215
	c-26.7-80.6-76.3-124-101-137c-24.7-13-95-45.1-161-32c-66,13.1-124.8,54.8-140,73C51,104.7,46.2,121.5,46.2,121.5z"/>
</svg>
