<?xml version="1.0" encoding="utf-8"?>
<!-- Generator: Adobe Illustrator 17.1.0, SVG Export Plug-In . SVG Version: 6.00 Build 0)  -->
<!DOCTYPE svg PUBLIC "-//W3C//DTD SVG 1.1//EN" "http://www.w3.org/Graphics/SVG/1.1/DTD/svg11.dtd">
<svg version="1.1" id="Слой_1" xmlns="http://www.w3.org/2000/svg" xmlns:xlink="http://www.w3.org/1999/xlink" x="0px" y="0px"
	 viewBox="131.6 -42 112.1 112" enable-background="new 131.6 -42 112.1 112" xml:space="preserve">
<g>
	<g>
		<path fill-rule="evenodd" clip-rule="evenodd" d="M231.2,0.9h-32l-8-29.2c-0.4-1.6-1.9-2.8-3.6-2.8c-1.7,0-3.2,1.2-3.6,2.8
			L173.1,0.9H144c-2.1,0-2.9,1.2-2.9,3.3c0,1.3,0.6,2.4,1.6,3.1c0.6,0.4,24.3,17.9,24.3,17.9s-9.1,28.2-9.3,28.6
			c-0.1,0.4-0.2,0.9-0.2,1.3c0,2.1,1.7,3.8,3.8,3.8c0.8,0,1.5-0.3,2.2-0.7l24.2-17.8c0,0,23.7,17.4,24.2,17.8
			c0.6,0.4,1.4,0.7,2.1,0.7c2.1,0,3.8-1.7,3.8-3.8c0-0.5-0.1-0.9-0.2-1.3c-0.2-0.4-9.3-28.6-9.3-28.6s23.7-17.5,24.3-17.9
			c1-0.7,1.6-1.8,1.6-3.2C234.1,2.1,233.3,0.9,231.2,0.9z M217.7,10.1c-0.4,0.2-17.8,10.6-17.8,10.6s8.5,21.8,8.6,22.1
			c0.1,0.2,0.1,0.5,0.1,0.8c0,1.2-1,2.3-2.2,2.3c-0.5,0-0.9-0.2-1.3-0.4c-0.3-0.2-17.5-12.6-17.5-12.6L170.9,45
			c-0.4,0.3-0.8,0.4-1.3,0.4c-1.2,0-2.2-1-2.2-2.3c0-0.3,0.1-0.5,0.1-0.8c0.1-0.3,7.9-21.7,7.9-21.7s-17.1-10.4-17.5-10.6
			c-0.6-0.4-1-1.1-1-1.9c0-1.3,0.6-1.5,1.8-1.5h20.2l6.6-17.8c0.3-1,1.1-1.6,2.1-1.6c1,0,1.9,0.7,2.1,1.6l5.4,17.8l21.6,0.1
			c1.2,0,1.8,0.2,1.8,1.4C218.6,9,218.3,9.7,217.7,10.1z"/>
	</g>
</g>
</svg>
