<?xml version="1.0" encoding="utf-8"?>
<!-- Generator: Adobe Illustrator 17.1.0, SVG Export Plug-In . SVG Version: 6.00 Build 0)  -->
<!DOCTYPE svg PUBLIC "-//W3C//DTD SVG 1.1//EN" "http://www.w3.org/Graphics/SVG/1.1/DTD/svg11.dtd">
<svg version="1.1" id="Слой_1" xmlns="http://www.w3.org/2000/svg" xmlns:xlink="http://www.w3.org/1999/xlink" x="0px" y="0px"
	 viewBox="0 0 233 233" enable-background="new 0 0 233 233" xml:space="preserve">
<g>
	<g>
		<path fill-rule="evenodd" clip-rule="evenodd" d="M163.9,91.5c-0.1-0.6-0.2-1.1-0.4-1.7l-3.9-17.4c-0.8-3.7-4.6-6-8.4-5.2
			L75.3,83.3c-3.2,0.7-5.3,3.3-5.5,6.3c-0.3,0.8-0.5,1.7-0.5,2.7v58.3c0,4,3.3,7.3,7.3,7.3h80.1c4,0,7.3-3.3,7.3-7.3V92.4h0.2
			L163.9,91.5z M152.7,73.9l2.5,11.1h-54.6L152.7,73.9z M76.5,150.5V92.4h0.8l0-0.2h79.3v16.3h-16.5c-4,0-7.2,3.2-7.2,7.3v14.5
			c0,4,3.2,7.3,7.2,7.3h16.5v13H76.5z M156.6,115.7v14.5h-16.5v-14.5H156.6z"/>
	</g>
</g>
</svg>
