<?xml version="1.0" encoding="utf-8"?>
<!-- Generator: Adobe Illustrator 17.1.0, SVG Export Plug-In . SVG Version: 6.00 Build 0)  -->
<!DOCTYPE svg PUBLIC "-//W3C//DTD SVG 1.1//EN" "http://www.w3.org/Graphics/SVG/1.1/DTD/svg11.dtd">
<svg version="1.1" id="Слой_1" xmlns="http://www.w3.org/2000/svg" xmlns:xlink="http://www.w3.org/1999/xlink" x="0px" y="0px"
	 viewBox="0 0 112 112" enable-background="new 0 0 112 112" xml:space="preserve">
<g>
	<g>
		<path fill-rule="evenodd" clip-rule="evenodd" d="M28.6,27.7c1.8,0,3.3-1.5,3.3-3.3v-6.5c0-1.8-1.5-3.3-3.3-3.3
			c-1.8,0-3.3,1.5-3.3,3.3v6.5C25.4,26.3,26.8,27.7,28.6,27.7z M41.8,27.7c1.8,0,3.3-1.5,3.3-3.3V4.8c0-1.8-1.5-3.3-3.3-3.3
			c-1.8,0-3.3,1.5-3.3,3.3v19.6C38.5,26.3,40,27.7,41.8,27.7z M54.9,27.7c1.8,0,3.3-1.5,3.3-3.3V11.4c0-1.8-1.5-3.3-3.3-3.3
			c-1.8,0-3.3,1.5-3.3,3.3v13.1C51.6,26.3,53.1,27.7,54.9,27.7z M68.1,27.7c1.8,0,3.3-1.5,3.3-3.3v-6.5c0-1.8-1.5-3.3-3.3-3.3
			s-3.3,1.5-3.3,3.3v6.5C64.8,26.3,66.3,27.7,68.1,27.7z M84.5,44.4V31H12.2v65.5c0,7.2,5.9,13.1,13.1,13.1h46
			c7.3,0,13.1-5.9,13.1-13.1v-6.9c11.1-1.6,19.7-11,19.7-22.6C104.2,55.5,95.6,46,84.5,44.4z M77.9,96.5c0,3.6-2.9,6.5-6.6,6.5h-46
			c-3.6,0-6.6-2.9-6.6-6.5V37.5h59.1V96.5z M84.5,83V51c7.5,1.5,13.1,8.1,13.1,16C97.6,74.9,92,81.5,84.5,83z"/>
	</g>
</g>
</svg>
