<?xml version="1.0" encoding="utf-8"?>
<!-- Generator: Adobe Illustrator 17.1.0, SVG Export Plug-In . SVG Version: 6.00 Build 0)  -->
<!DOCTYPE svg PUBLIC "-//W3C//DTD SVG 1.1//EN" "http://www.w3.org/Graphics/SVG/1.1/DTD/svg11.dtd">
<svg version="1.1" id="Слой_1" xmlns="http://www.w3.org/2000/svg" xmlns:xlink="http://www.w3.org/1999/xlink" x="0px" y="0px"
	 viewBox="131.6 -42 112.1 112" enable-background="new 131.6 -42 112.1 112" xml:space="preserve">
<g>
	<g>
		<path fill-rule="evenodd" clip-rule="evenodd" d="M208.5-11.1c-5.1,0-9.2,4.1-9.2,9.1c0,5,4.1,9.1,9.2,9.1c5.1,0,9.2-4.1,9.2-9.1
			C217.7-7,213.6-11.1,208.5-11.1z M208.5,1.1c-1.7,0-3.1-1.4-3.1-3c0-1.7,1.4-3,3.1-3c1.7,0,3.1,1.4,3.1,3
			C211.6-0.3,210.2,1.1,208.5,1.1z M217.7-32.3h-42.9c-10.1,0-18.4,8.2-18.4,18.2v10.8c-9.6,0.5-17.3,8.4-17.3,18.1v12c0,0,0,0,0,0
			c0,1,0,30.2,0,30.3c-0.2,1.2,0.3,2.1,1.4,2.7c1.5,0.8,2.8,0.6,4.3-0.8l18.9-14.1h18.1c9.6,0,17.4-7.3,18.2-16.6h11.4l19,14.2
			c1.5,1.5,2.8,1.7,4.3,0.8c1.1-0.6,1.6-1.6,1.4-2.8c0-0.1,0-29.4,0-30.4c0,0,0,0,0,0v-24.3C236.1-24.2,227.9-32.3,217.7-32.3z
			 M181.8,38.9h-17.2c0,0,0,0.1,0,0.1c-1.4-0.5-3,0-3.7,1.3l-15.6,12V14.8c0-6.3,4.9-11.5,11.2-12v7.4c0,10.1,8.2,18.2,18.4,18.2h19
			C193.1,34.3,188,38.9,181.8,38.9z M230,35.8l-15.7-12.1c-0.8-1.3-2.4-1.8-3.8-1.3c0,0,0-0.1,0-0.1h-35.7
			c-6.8,0-12.2-5.4-12.2-12.1v-24.3c0-6.7,5.5-12.1,12.2-12.1h42.9c6.8,0,12.2,5.4,12.2,12.1V35.8z M184-11.1
			c-5.1,0-9.2,4.1-9.2,9.1c0,5,4.1,9.1,9.2,9.1c5.1,0,9.2-4.1,9.2-9.1C193.2-7,189.1-11.1,184-11.1z M184,1.1c-1.7,0-3.1-1.4-3.1-3
			c0-1.7,1.4-3,3.1-3c1.7,0,3.1,1.4,3.1,3C187.1-0.3,185.7,1.1,184,1.1z"/>
	</g>
</g>
</svg>
