<?xml version="1.0" encoding="utf-8"?>
<!-- Generator: Adobe Illustrator 17.1.0, SVG Export Plug-In . SVG Version: 6.00 Build 0)  -->
<!DOCTYPE svg PUBLIC "-//W3C//DTD SVG 1.1//EN" "http://www.w3.org/Graphics/SVG/1.1/DTD/svg11.dtd">
<svg version="1.1" id="Слой_1" xmlns="http://www.w3.org/2000/svg" xmlns:xlink="http://www.w3.org/1999/xlink" x="0px" y="0px"
	 viewBox="0 0 233 233" enable-background="new 0 0 233 233" xml:space="preserve">
<g>
	<g>
		<path fill-rule="evenodd" clip-rule="evenodd" d="M161.5,66.7H74.1c-8,0-14.6,6.5-14.6,14.6v43.7c0,8,6.5,14.6,14.6,14.6h40v14.6
			H95.9c-2,0-3.6,1.6-3.6,3.6c0,2,1.6,3.6,3.6,3.6h43.7c2,0,3.6-1.6,3.6-3.6c0-2-1.6-3.6-3.6-3.6h-18.2v-14.6h40
			c8,0,14.6-6.5,14.6-14.6V81.3C176,73.2,169.5,66.7,161.5,66.7z M168.7,124.9c0,4-3.3,7.3-7.3,7.3H74.1c-4,0-7.3-3.3-7.3-7.3V81.3
			c0-4,3.3-7.3,7.3-7.3h87.4c4,0,7.3,3.3,7.3,7.3V124.9z"/>
	</g>
</g>
</svg>
