<?xml version="1.0" encoding="utf-8"?>
<!-- Generator: Adobe Illustrator 17.1.0, SVG Export Plug-In . SVG Version: 6.00 Build 0)  -->
<!DOCTYPE svg PUBLIC "-//W3C//DTD SVG 1.1//EN" "http://www.w3.org/Graphics/SVG/1.1/DTD/svg11.dtd">
<svg version="1.1" id="Слой_1" xmlns="http://www.w3.org/2000/svg" xmlns:xlink="http://www.w3.org/1999/xlink" x="0px" y="0px"
	 viewBox="0 0 233 233" enable-background="new 0 0 233 233" xml:space="preserve">
<g>
	<path fill-rule="evenodd" clip-rule="evenodd" d="M168.3,132.1l-43.7-29c-2.2-1.5-5.1-1.6-7.5-0.4c-1.3,0.7-2.3,1.7-2.9,2.9
		c-0.2,0-0.5,0-0.7,0v1.9c-0.1,0.5-0.2,1-0.2,1.6v5.1l0.2,0.1v5.8c0,2.2,0,5.5,0,5.5s-3.3-0.1-5.1-1.3l-34.2-20.9
		c-1.7-1.1-2.7-2.9-2.7-4.9c0-2,1-3.4,2.7-4.5l34.2-22.4c1.8-1.2,5.1-1,5.1-1s0,3.8,0,6v14.5c20.1,0,43.3,8,46.9,34.7l4.1,1.3
		c0-23.9-19.6-43.3-43.7-43.3V69.5c0-2.7-1.5-5.1-3.8-6.4c-2.4-1.3-5.2-1.1-7.5,0.4L65.7,92.3c-2,1.3-3.2,3.6-3.2,6
		c0,2.4,1.2,4.7,3.2,6l3.9,2.6c0,0.7-0.1,1.4-0.1,2.2c0,24.1,19.6,43.6,43.7,43.6v14.5c0,2.7,1.5,5.1,3.8,6.4
		c2.4,1.3,5.2,1.1,7.5-0.4l43.7-29c2-1.3,3.2-3.6,3.2-6C171.6,135.7,170.3,133.5,168.3,132.1z M159.9,142.4L125.7,165
		c-1.8,1.2-5.1,1-5.1,1s0-3.8,0-6v-14.6c-20.3,0-43.8-8.2-47-35.9l35.9,23.7c2.2,1.5,5.1,1.6,7.5,0.4c2.4-1.3,3.8-3.7,3.8-6.4v-16.5
		c0.7,0,3.4,0.2,4.9,1.3l34.2,21c1.7,1.1,2.7,3,2.7,4.9C162.6,139.9,161.6,141.3,159.9,142.4z"/>
</g>
</svg>
