<?xml version="1.0" encoding="utf-8"?>
<!-- Generator: Adobe Illustrator 17.1.0, SVG Export Plug-In . SVG Version: 6.00 Build 0)  -->
<!DOCTYPE svg PUBLIC "-//W3C//DTD SVG 1.1//EN" "http://www.w3.org/Graphics/SVG/1.1/DTD/svg11.dtd">
<svg version="1.1" id="Слой_1" xmlns="http://www.w3.org/2000/svg" xmlns:xlink="http://www.w3.org/1999/xlink" x="0px" y="0px"
	 viewBox="0 0 112 112" enable-background="new 0 0 112 112" xml:space="preserve">
<path fill-rule="evenodd" clip-rule="evenodd" d="M108,72.8C105.5,63.2,96,56,85.5,56c-10.3,0-19,7-21.6,16.5
	C58,62.6,47.3,56,34.9,56C20.7,56,8.6,64.8,3.7,77.2c-1.5,5.7,0.1,10,1.2,10.8c12,14.5,28.2,24.1,49.8,24
	c22.2,0,41.2-11.2,52.9-28.1L108,72.8 M63,89.6v-2.8h-0.1c-1.4-14.1-13.4-25.2-28-25.2c-13.3,0-24.4,9.2-27.3,21.5
	c10.8,14.1,27.8,23.3,47,23.3c2.9,0,5.7-0.2,8.4-0.6V98l0,0V89.6L63,89.6L63,89.6C63,89.6,63,89.6,63,89.6z M102.4,81.2v-5.6h-0.3
	c-1.3-7.9-8.2-14-16.6-14c-7.3,0-13.5,4.7-15.8,11.2h-1v16.8c0,0,0,0,0,0v11.2l0,0v3.9c14.1-3.4,26.2-12,34.3-23.5H102.4z
	 M85.5,50.4c-9.3,0-16.9-7.5-16.9-16.8c0-9.3,7.5-16.8,16.9-16.8c9.3,0,16.9,7.5,16.9,16.8C102.4,42.9,94.8,50.4,85.5,50.4z
	 M85.5,22.4c-6.2,0-11.2,5-11.2,11.2s5,11.2,11.2,11.2c6.2,0,11.2-5,11.2-11.2S91.7,22.4,85.5,22.4z M34.9,50.4
	c-14,0-25.3-11.3-25.3-25.2C9.6,11.3,21,0,34.9,0c14,0,25.3,11.3,25.3,25.2C60.2,39.1,48.9,50.4,34.9,50.4z M34.9,5.6
	c-10.9,0-19.7,8.8-19.7,19.6c0,10.8,8.8,19.6,19.7,19.6c10.9,0,19.7-8.8,19.7-19.6C54.6,14.4,45.8,5.6,34.9,5.6z"/>
</svg>
