<?xml version="1.0" encoding="utf-8"?>
<!-- Generator: Adobe Illustrator 17.1.0, SVG Export Plug-In . SVG Version: 6.00 Build 0)  -->
<!DOCTYPE svg PUBLIC "-//W3C//DTD SVG 1.1//EN" "http://www.w3.org/Graphics/SVG/1.1/DTD/svg11.dtd">
<svg version="1.1" id="Слой_1" xmlns="http://www.w3.org/2000/svg" xmlns:xlink="http://www.w3.org/1999/xlink" x="0px" y="0px"
	 viewBox="0 0 233 233" enable-background="new 0 0 233 233" xml:space="preserve">
<g>
	<path fill-rule="evenodd" clip-rule="evenodd" d="M159.6,77.8c-8,0-14.6,6.5-14.6,14.6c0,3.7,1.4,7.2,3.8,9.7l-14.3,22.5
		l-16.2-10.8l-0.9,1.4l-0.5-0.3l-11.3,17l-20-14.3l-0.9,1.3l-0.6-0.4l-25.5,36.5l6,4.2l22.2-31.7l20.1,14.4l0.9-1.3l0.6,0.4
		l11.4-17.2l16.3,10.9l0.9-1.4l0.5,0.3l17.3-27.2c1.5,0.5,3.1,0.8,4.7,0.8c8,0,14.6-6.5,14.6-14.6C174.1,84.3,167.6,77.8,159.6,77.8
		z M159.6,99.6c-4,0-7.3-3.3-7.3-7.3s3.3-7.3,7.3-7.3c4,0,7.3,3.3,7.3,7.3S163.6,99.6,159.6,99.6z"/>
</g>
</svg>
