<?xml version="1.0" encoding="utf-8"?>
<!-- Generator: Adobe Illustrator 17.1.0, SVG Export Plug-In . SVG Version: 6.00 Build 0)  -->
<!DOCTYPE svg PUBLIC "-//W3C//DTD SVG 1.1//EN" "http://www.w3.org/Graphics/SVG/1.1/DTD/svg11.dtd">
<svg version="1.1" id="Слой_1" xmlns="http://www.w3.org/2000/svg" xmlns:xlink="http://www.w3.org/1999/xlink" x="0px" y="0px"
	 viewBox="0 0 112 112" enable-background="new 0 0 112 112" xml:space="preserve">
<path fill-rule="evenodd" clip-rule="evenodd" d="M59.2,84.8v3.4v6.4v6.4H69c1.8,0,3.3,1.4,3.3,3.2c0,1.8-1.5,3.2-3.3,3.2H43
	c-1.8,0-3.2-1.4-3.2-3.2c0-1.8,1.5-3.2,3.2-3.2h9.8v-6.4v-6.4v-3.4c-16.4-1.6-29.3-15.3-29.3-32c0-1.8,1.5-3.2,3.3-3.2
	c1.8,0,3.2,1.4,3.2,3.2C30,67,41.6,78.5,56,78.5S82,67,82,52.8c0-1.8,1.5-3.2,3.2-3.2c1.8,0,3.3,1.4,3.3,3.2
	C88.5,69.5,75.7,83.2,59.2,84.8z M56,72.1c-10.8,0-19.5-8.6-19.5-19.3v-29c0-10.7,8.7-19.3,19.5-19.3c10.8,0,19.5,8.6,19.5,19.3v29
	C75.5,63.4,66.8,72.1,56,72.1z M69,23.8c0-7.1-5.8-12.9-13-12.9c-7.2,0-13,5.8-13,12.9v29c0,7.1,5.8,12.9,13,12.9
	c7.2,0,13-5.8,13-12.9V23.8z"/>
</svg>
