<?xml version="1.0" encoding="utf-8"?>
<!-- Generator: Adobe Illustrator 17.1.0, SVG Export Plug-In . SVG Version: 6.00 Build 0)  -->
<!DOCTYPE svg PUBLIC "-//W3C//DTD SVG 1.1//EN" "http://www.w3.org/Graphics/SVG/1.1/DTD/svg11.dtd">
<svg version="1.1" id="Слой_1" xmlns="http://www.w3.org/2000/svg" xmlns:xlink="http://www.w3.org/1999/xlink" x="0px" y="0px"
	 viewBox="0 0 32 32" enable-background="new 0 0 32 32" xml:space="preserve">
<path fill="#020202" d="M28,0H4C1.8,0,0,1.8,0,4v24c0,2.2,1.8,4,4,4h24c2.2,0,4-1.8,4-4V4C32,1.8,30.2,0,28,0z M16,12c3.7,0,4,4,4,4
	s0.1,4-4,4c-4.1,0-4-4-4-4S12.3,12,16,12z M28,26c0,1.1-0.9,2-2,2H6c-1.1,0-2-0.9-2-2V16c0-1.1,0.9-2,2-2h2.3C8.1,14.6,8,15.3,8,16
	c0,4.4,3.6,8,8,8c4.4,0,8-3.6,8-8c0-0.7-0.1-1.4-0.3-2H26c1.1,0,2,0.9,2,2V26z M28,8c0,1.1-0.9,2-2,2h-2c-1.1,0-2-0.9-2-2V6
	c0-1.1,0.9-2,2-2h2c1.1,0,2,0.9,2,2V8z"/>
</svg>
