<?xml version="1.0" encoding="utf-8"?>
<!-- Generator: Adobe Illustrator 17.1.0, SVG Export Plug-In . SVG Version: 6.00 Build 0)  -->
<!DOCTYPE svg PUBLIC "-//W3C//DTD SVG 1.1//EN" "http://www.w3.org/Graphics/SVG/1.1/DTD/svg11.dtd">
<svg version="1.1" id="Слой_1" xmlns="http://www.w3.org/2000/svg" xmlns:xlink="http://www.w3.org/1999/xlink" x="0px" y="0px"
	 viewBox="0 0 343 122.4" enable-background="new 0 0 343 122.4" xml:space="preserve">
<g>
	<g>
		<path d="M65.6,74.2V27.4H25.1v1.4h1.4c2.1,0,3.5,0.7,4.1,2c0.6,1.3,0.9,3,0.9,5.1v38.3h6.4V30.3h21.3v43.9H65.6z M84.3,87.7V72.8
			c1.1,0.5,2.3,1,3.8,1.5c1.4,0.4,3.1,0.7,5.1,0.7c2.3,0,4.3-0.5,6-1.4c1.7-0.9,3.1-2.2,4.2-3.7c1.1-1.6,1.9-3.4,2.5-5.5
			c0.5-2.1,0.8-4.4,0.8-6.8c0-2.4-0.3-4.7-0.8-6.8c-0.5-2.1-1.4-3.9-2.4-5.5c-1.1-1.6-2.4-2.8-4-3.7c-1.6-0.9-3.4-1.4-5.6-1.4
			c-2.7,0-4.7,0.4-6.3,1.3c-1.5,0.8-2.6,1.7-3.3,2.6h-0.4c-0.4-1.1-1-1.9-2-2.4c-0.9-0.5-2.3-0.8-4.1-0.8h-6.4v1.4h1.4
			c2.1,0,3.5,0.7,4.1,1.9c0.6,1.3,0.9,3,0.9,5.1v38.3H84.3z M84.3,47.3c0.3-0.5,0.7-1,1.2-1.6c0.5-0.5,1-1,1.6-1.4
			c0.6-0.4,1.3-0.7,2-1c0.8-0.2,1.6-0.4,2.6-0.4c1.4,0,2.6,0.4,3.7,1.1c1,0.8,1.9,1.8,2.6,3.1c0.7,1.3,1.2,2.8,1.5,4.6
			c0.3,1.8,0.5,3.7,0.5,5.7c0,2-0.2,3.9-0.5,5.7c-0.3,1.8-0.9,3.3-1.6,4.6c-0.7,1.3-1.6,2.3-2.7,3.1c-1.1,0.8-2.5,1.1-4.1,1.1
			c-1.1,0-2.2-0.2-3.4-0.7c-1.2-0.4-2.3-0.9-3.4-1.5V47.3z M124,55.5c-2.2,0.3-4.1,0.8-5.8,1.6c-1.7,0.8-3,1.8-4,3
			c-1,1.3-1.5,2.9-1.5,4.8c0,1.9,0.4,3.5,1.1,4.8c0.7,1.3,1.6,2.3,2.6,3.1c1,0.8,2.2,1.3,3.3,1.6c1.2,0.3,2.3,0.5,3.3,0.5
			c2.7,0,4.9-0.4,6.5-1.3c1.6-0.8,2.8-1.7,3.5-2.6h0.4l2.5,3.2h3.6V55.1c0-3.2-0.3-5.7-1-7.7c-0.7-2-1.6-3.5-2.8-4.5
			c-1.2-1.1-2.5-1.8-4-2.1c-1.5-0.4-3-0.5-4.7-0.5c-1.1,0-2.2,0-3.2,0.1c-1.1,0.1-2.1,0.2-3,0.4c-0.9,0.2-1.8,0.5-2.6,0.8
			c-0.8,0.3-1.4,0.7-1.8,1.1c-0.9,0.9-1.4,1.9-1.6,2.9c-0.1,1.1-0.2,2.2-0.2,3.4h3.2c0.5-2.3,1.5-3.9,2.8-4.7c1.4-0.8,3-1.3,5-1.3
			c1,0,2,0.2,2.9,0.5c0.9,0.3,1.7,0.9,2.4,1.8c0.7,0.9,1.2,2.1,1.6,3.7c0.4,1.6,0.6,3.6,0.6,6.1h-2.1
			C128.4,55.1,126.1,55.2,124,55.5z M133,67.5c-0.7,1.1-1.6,2.1-2.6,2.9c-1,0.9-2.4,1.3-4.2,1.3c-0.9,0-1.8-0.1-2.6-0.4
			c-0.8-0.3-1.5-0.7-2.1-1.2c-0.6-0.6-1.1-1.3-1.5-2.1c-0.4-0.9-0.6-1.8-0.6-3c0-2.1,1-3.8,3-5.1c2-1.3,4.8-2,8.4-2h2.1V67.5z
			 M156.9,74.2V59l8.2,10.3c1.6,2,3.3,3.4,5,4.3c1.7,0.9,3.5,1.3,5.3,1.3c0.7,0,1.4-0.1,2-0.2c0.6-0.1,1.1-0.3,1.5-0.5v-1.4
			c-1.6-0.2-3.1-0.8-4.4-1.8c-1.3-1-2.6-2.3-3.8-3.9l-8.2-10.2l7.8-11c0.9-1.2,1.9-2.1,3.1-2.5c1.1-0.5,2.3-0.7,3.3-0.7v-1.8H175
			c-2.3,0-4.2,0.4-5.6,1.2c-1.4,0.8-2.6,1.9-3.7,3.4l-8.9,12.4v-8.5c0-1.7-0.1-3.2-0.3-4.3c-0.2-1.1-0.5-2-1-2.6
			c-0.5-0.6-1.2-1.1-2-1.3c-0.8-0.2-1.9-0.3-3.1-0.3h-6.4v1.4h1.4c2.1,0,3.5,0.7,4.1,1.9c0.6,1.3,0.9,3,0.9,5.1v24.8H156.9z
			 M184.2,41.4c-0.7,0.3-1.2,0.8-1.6,1.3c-0.4,0.5-0.7,1.1-0.8,1.8c-0.2,0.7-0.2,1.4-0.2,2.1v4.3h1.4c0-2.3,0.7-4.1,2.1-5.3
			c1.4-1.2,3.2-1.8,5.3-1.8h3.6v30.5h6.4V43.7h11.7v-2.8h-25.2C185.8,40.9,184.9,41.1,184.2,41.4z M225.7,67.8V49.4
			c0-1.7-0.1-3.2-0.3-4.3c-0.2-1.1-0.5-2-1-2.6c-0.5-0.6-1.2-1.1-2-1.3c-0.8-0.2-1.9-0.3-3.1-0.3h-6v1.4h1.1c2.1,0,3.5,0.7,4.1,1.9
			c0.6,1.3,0.9,3,0.9,5.1v24.8h6.4l14.9-26.9v26.9h6.4V40.9h-6.4L225.7,67.8z M278.7,67.1l-8.2-10.2l7.8-11c0.9-1.2,1.9-2.1,3.1-2.5
			c1.1-0.5,2.3-0.7,3.3-0.7v-1.8H283c-2.3,0-4.2,0.4-5.6,1.2c-1.4,0.8-2.6,1.9-3.7,3.4l-8.9,12.4v-8.5c0-1.7-0.1-3.2-0.3-4.3
			c-0.2-1.1-0.5-2-1-2.6c-0.5-0.6-1.2-1.1-2-1.3c-0.8-0.2-1.9-0.3-3.1-0.3h-6.4v1.4h1.4c2.1,0,3.5,0.7,4.1,1.9
			c0.6,1.3,0.9,3,0.9,5.1v24.8h6.4V59l8.2,10.3c1.6,2,3.3,3.4,5,4.3c1.7,0.9,3.5,1.3,5.3,1.3c0.7,0,1.4-0.1,2-0.2
			c0.6-0.1,1.1-0.3,1.5-0.5v-1.4c-1.6-0.2-3.1-0.8-4.4-1.8C281.2,70,280,68.7,278.7,67.1z M310.5,71h0.4l2.5,3.2h3.6V55.1
			c0-3.2-0.3-5.7-1-7.7c-0.7-2-1.6-3.5-2.8-4.5c-1.2-1.1-2.5-1.8-4-2.1c-1.5-0.4-3-0.5-4.7-0.5c-1.1,0-2.2,0-3.2,0.1
			c-1.1,0.1-2.1,0.2-3,0.4c-0.9,0.2-1.8,0.5-2.6,0.8c-0.8,0.3-1.4,0.7-1.8,1.1c-0.9,0.9-1.4,1.9-1.6,2.9c-0.1,1.1-0.2,2.2-0.2,3.4
			h3.2c0.5-2.3,1.5-3.9,2.8-4.7c1.4-0.8,3-1.3,5-1.3c1,0,2,0.2,3,0.5c0.9,0.3,1.7,0.9,2.4,1.8c0.7,0.9,1.2,2.1,1.6,3.7
			c0.4,1.6,0.6,3.6,0.6,6.1h-2.1c-2.4,0-4.7,0.2-6.9,0.5c-2.2,0.3-4.1,0.8-5.8,1.6c-1.7,0.8-3,1.8-4,3c-1,1.3-1.5,2.9-1.5,4.8
			c0,1.9,0.4,3.5,1.1,4.8c0.7,1.3,1.6,2.3,2.6,3.1c1,0.8,2.2,1.3,3.3,1.6c1.2,0.3,2.3,0.5,3.3,0.5c2.7,0,4.9-0.4,6.5-1.3
			C308.6,72.8,309.8,71.9,310.5,71z M301.2,71.4c-0.8-0.3-1.5-0.7-2.1-1.2c-0.6-0.6-1.1-1.3-1.5-2.1c-0.4-0.9-0.6-1.8-0.6-3
			c0-2.1,1-3.8,3-5.1c2-1.3,4.8-2,8.4-2h2.1v9.6c-0.7,1.1-1.6,2.1-2.6,2.9c-1,0.9-2.4,1.3-4.2,1.3C302.8,71.7,302,71.6,301.2,71.4z
			 M0-0.4v111h189.8v-4H4V3.6H339v103h-33.5v4H343v-111H0z"/>
	</g>
</g>
</svg>
