<?xml version="1.0" encoding="utf-8"?>
<!-- Generator: Adobe Illustrator 17.1.0, SVG Export Plug-In . SVG Version: 6.00 Build 0)  -->
<!DOCTYPE svg PUBLIC "-//W3C//DTD SVG 1.1//EN" "http://www.w3.org/Graphics/SVG/1.1/DTD/svg11.dtd">
<svg version="1.1" id="Слой_1" xmlns="http://www.w3.org/2000/svg" xmlns:xlink="http://www.w3.org/1999/xlink" x="0px" y="0px"
	 viewBox="0 0 343 122.4" enable-background="new 0 0 343 122.4" xml:space="preserve">
<g>
	<g>
		<path d="M221.2,95.5c-1.8-1.8-4.4-2.7-7.5-2.7h-10.2v29.4h10.2c3.1,0,5.7-1,7.5-2.7c3.1-3.1,2.9-8.2,2.9-12.3
			C224.1,103.1,224.2,98.5,221.2,95.5z M218.9,117.2c-1.5,1.6-3.5,2.2-5.8,2.2h-6.5V95.6h6.5c2.3,0,4.3,0.6,5.8,2.1
			c2,2.1,2,5.8,2,9.4C220.9,110.7,221,115.1,218.9,117.2z M238.3,92.8l-10.9,29.4h3.4l2.4-6.7h13l2.4,6.7h3.4l-10.9-29.4H238.3z
			 M234,112.8l5.6-15.5l5.5,15.5H234z M261.6,106.9l-7-14.1h-3.4L260,110v12.2h3.2V110l8.8-17.3h-3.4L261.6,106.9z M292,108.3
			c-1.3-1.1-2.6-1.7-5.4-2.1l-3.3-0.5c-1.5-0.2-3.1-0.8-4-1.6c-0.9-0.8-1.3-1.9-1.3-3.4c0-3.3,2.3-5.5,6.3-5.5
			c3.1,0,5.1,0.9,6.9,2.5l2-2c-2.5-2.3-5-3.2-8.8-3.2c-5.9,0-9.5,3.3-9.5,8.3c0,2.4,0.8,4.2,2.3,5.5c1.3,1.1,3.1,1.9,5.5,2.2
			l3.5,0.5c2.2,0.3,2.9,0.6,3.9,1.4c1,0.8,1.4,2.2,1.4,3.7c0,3.4-2.7,5.5-7,5.5c-3.3,0-5.6-0.8-8.1-3.2l-2.2,2.2
			c2.8,2.8,5.7,3.9,10.2,3.9c6.2,0,10.3-3.2,10.3-8.3C294.5,111.7,293.6,109.6,292,108.3z"/>
	</g>
</g>
</svg>
