<?xml version="1.0" encoding="utf-8"?>
<!-- Generator: Adobe Illustrator 17.1.0, SVG Export Plug-In . SVG Version: 6.00 Build 0)  -->
<!DOCTYPE svg PUBLIC "-//W3C//DTD SVG 1.1//EN" "http://www.w3.org/Graphics/SVG/1.1/DTD/svg11.dtd">
<svg version="1.1" id="Слой_1" xmlns="http://www.w3.org/2000/svg" xmlns:xlink="http://www.w3.org/1999/xlink" x="0px" y="0px"
	 viewBox="0 0 456 535" enable-background="new 0 0 456 535" xml:space="preserve">
<g>
	<g>
		<path d="M204.5,131.1c4.1,0.3,8.2-2.1,9.7-6.2c1.5-4.1,0-8.6-3.4-11h0L59.1,2.6v0c-1.1-0.7-2.2-1.4-3.4-1.8
			C40.7-4.6,19.1,17,7.3,49.2c-11.7,32.2-9.1,62.7,5.9,68.2c1.5,0.5,3,0.8,4.7,0.8l186.5,13.1L204.5,131.1z M55.3,66.7
			C45.5,93.4,29,112,18.4,108.1c-10.6-3.9-11.3-28.7-1.6-55.4C26.6,26,43.1,7.5,53.7,11.3C64.3,15.2,65,40,55.3,66.7z M453.7,299.5
			L453.7,299.5l-130-130l-103-6.8L164.5,186l-9.5-40.5c-0.8-4-5-7.1-10.2-7.1c-5.7,0-10.3,3.8-10.3,8.4c0,0.1,0,0.1,0,0.2
			c0,5-0.5,66.5,4.2,75.6c4.9,9.4,13.2,5.7,13.2,5.7l50.4-16.4l15.1,86.9l-46.4,226.7c0,0-2.5,7.7,7,9.4c8.3,1.5,11.3-5.7,11.3-5.7
			L263,359h0l73.7,170.1c0,0,2.9,7.1,11.3,5.7c9.5-1.6,7-9.4,7-9.4l-46.4-226.7h0l15.1-76.6l114.7,88.7l0,0c1.9,1.5,4.4,2.4,7.2,2.4
			c5.7,0,10.3-3.8,10.3-8.4C456,302.8,455.1,301,453.7,299.5z M271.9,155c21.3-0.1,38.6-17.5,38.5-38.9
			c-0.1-21.4-17.4-38.7-38.8-38.6c-21.3,0.1-38.6,17.5-38.5,38.9C233.2,137.7,250.6,155,271.9,155z M242.6,126.5
			c1.8-2.8,7.1-2.6,11.8,0.5c4.7,3.1,7.1,7.8,5.3,10.6c-1.8,2.8-7.1,2.6-11.8-0.5C243.2,134.1,240.8,129.3,242.6,126.5z"/>
	</g>
</g>
</svg>
