<?xml version="1.0" encoding="utf-8"?>
<!-- Generator: Adobe Illustrator 17.1.0, SVG Export Plug-In . SVG Version: 6.00 Build 0)  -->
<!DOCTYPE svg PUBLIC "-//W3C//DTD SVG 1.1//EN" "http://www.w3.org/Graphics/SVG/1.1/DTD/svg11.dtd">
<svg version="1.1" id="Layer_1" xmlns="http://www.w3.org/2000/svg" xmlns:xlink="http://www.w3.org/1999/xlink" x="0px" y="0px"
	 viewBox="0 0 176 44" enable-background="new 0 0 176 44" xml:space="preserve">
<g>
	<g>
		<path d="M41.7,12.7c0-4.5-1-7.8-3-9.7C36.7,1,33.6,0,29.2,0H12.5C8.2,0,5,1,3,2.9c-2,1.9-3,5.2-3,8.8V44h7.8V26.1h21.4
			c4.3,0,7.5-1,9.5-2.9c2-1.9,3-5.2,3-9.7V12.7z M33.9,13.7c0,2.9-1.1,4.2-3.7,4.2H7.8v-5.5c0-2.9,1.1-4.2,3.7-4.2h18.7
			c2.5,0,3.7,1.3,3.7,4.2V13.7z M121.5,0v17.9H99.1c-2.6,0-3.7-1.3-3.7-4.2V0h-7.8v13.4c0,4.5,1,7.8,3,9.7c2,1.9,5.2,2.9,9.5,2.9
			h21.4v5.5c0,2.9-1.1,4.2-3.7,4.2H94.5V44h22.3c4.3,0,7.5-1,9.5-2.9c2-1.9,3-6.1,3-10.6V0H121.5z M70.8,0H48.5v8.2h23.3
			c2.6,0,3.7,1.3,3.7,4.2v5.5H54.1c-4.3,0-7.5,1-9.5,2.9c-2,1.9-3,5.2-3,9.7v0.8c0,4.5,1,7.8,3,9.7c2,1.9,5.2,2.9,9.5,2.9h16.8
			c4.3,0,7.5-1,9.5-2.9c2-1.9,3-5.2,3-8.8V13.6c0-5.4-1-8.7-3-10.6C78.3,1,75.2,0,70.8,0z M75.5,31.6c0,2.9-1.1,4.2-3.7,4.2l-18.7,0
			c-2.6,0-3.7-1.3-3.7-4.2v-1.4c0-2.9,1.1-4.2,3.7-4.2h22.4V31.6z"/>
	</g>
</g>
</svg>
