<?xml version="1.0" encoding="utf-8"?>
<!-- Generator: Adobe Illustrator 17.1.0, SVG Export Plug-In . SVG Version: 6.00 Build 0)  -->
<!DOCTYPE svg PUBLIC "-//W3C//DTD SVG 1.1//EN" "http://www.w3.org/Graphics/SVG/1.1/DTD/svg11.dtd">
<svg version="1.1" id="Слой_1" xmlns="http://www.w3.org/2000/svg" xmlns:xlink="http://www.w3.org/1999/xlink" x="0px" y="0px"
	 viewBox="0 0 50.9 47.2" enable-background="new 0 0 50.9 47.2" xml:space="preserve">
<path d="M48.3,27.7c-1.7-2-4-2.8-6.9-2.4c-0.2-4.1,0.7-7.6,2.6-10.6c1.9-3,4.1-5.4,6.7-7.2L45.4,0c-1.4,0.8-3,1.9-4.9,3.4
	c-1.9,1.5-3.7,3.5-5.5,6.1c-1.8,2.6-3.4,5.6-4.6,9.3c-1.3,3.6-1.9,7.9-1.9,12.9c0,5.3,1.2,9.2,3.5,11.8c2.3,2.6,5.2,3.8,8.7,3.8
	c3,0,5.5-1,7.3-3c1.9-2,2.8-4.8,2.8-8.2C50.9,32.5,50,29.7,48.3,27.7z M19.8,27.7c-1.7-2-4-2.8-6.9-2.4c-0.2-4.1,0.7-7.6,2.6-10.6
	c1.9-3,4.1-5.4,6.7-7.2L17,0c-1.4,0.8-3,1.9-4.9,3.4c-1.9,1.5-3.7,3.5-5.5,6.1c-1.8,2.6-3.4,5.6-4.6,9.3C0.6,22.4,0,26.7,0,31.6
	c0,5.3,1.2,9.2,3.5,11.8c2.3,2.6,5.2,3.8,8.7,3.8c3,0,5.5-1,7.3-3c1.9-2,2.8-4.8,2.8-8.2C22.4,32.5,21.5,29.7,19.8,27.7z"/>
</svg>
