<?xml version="1.0" encoding="utf-8"?>
<!-- Generator: Adobe Illustrator 17.1.0, SVG Export Plug-In . SVG Version: 6.00 Build 0)  -->
<!DOCTYPE svg PUBLIC "-//W3C//DTD SVG 1.1//EN" "http://www.w3.org/Graphics/SVG/1.1/DTD/svg11.dtd">
<svg version="1.1" id="Слой_1" xmlns="http://www.w3.org/2000/svg" xmlns:xlink="http://www.w3.org/1999/xlink" x="0px" y="0px"
	 viewBox="0 0 50.9 47.2" enable-background="new 0 0 50.9 47.2" xml:space="preserve">
<path d="M31.3,20c2,2,4.3,2.7,7,2.3c0.1,4.1-0.7,7.6-2.6,10.7c-1.9,3.1-4.1,5.5-6.7,7.1l5.2,6.8c1.4-0.8,3-1.9,5-3.5
	c2-1.6,3.8-3.6,5.5-6.1c1.7-2.5,3.2-5.5,4.4-9.2c1.2-3.6,1.8-7.8,1.8-12.7c0-5.1-1.1-8.9-3.4-11.4c-2.3-2.5-5.2-3.7-8.8-3.7
	c-3,0-5.5,1-7.5,2.9c-2,2-2.9,4.7-2.9,8.1C28.4,15.2,29.3,18,31.3,20z M2.8,20c2,2,4.3,2.7,7,2.3C10,26.3,9.1,29.9,7.2,33
	c-1.9,3.1-4.1,5.5-6.7,7.1l5.2,6.8c1.4-0.8,3-1.9,5-3.5c2-1.6,3.8-3.6,5.5-6.1c1.7-2.5,3.2-5.5,4.4-9.2c1.2-3.6,1.8-7.8,1.8-12.7
	c0-5.1-1.1-8.9-3.4-11.4c-2.3-2.5-5.2-3.7-8.8-3.7c-3,0-5.5,1-7.5,2.9c-2,2-2.9,4.7-2.9,8.1C-0.1,15.2,0.9,18,2.8,20z"/>
</svg>
