<?xml version="1.0" encoding="utf-8"?>
<!-- Generator: Adobe Illustrator 17.1.0, SVG Export Plug-In . SVG Version: 6.00 Build 0)  -->
<!DOCTYPE svg PUBLIC "-//W3C//DTD SVG 1.1//EN" "http://www.w3.org/Graphics/SVG/1.1/DTD/svg11.dtd">
<svg version="1.1" id="Слой_1" xmlns="http://www.w3.org/2000/svg" xmlns:xlink="http://www.w3.org/1999/xlink" x="0px" y="0px"
	 viewBox="0 0 102 69.2" enable-background="new 0 0 102 69.2" xml:space="preserve">
<g>
	<g>
		<path d="M100.3,15.8c-2.2-2.1-5.7-2.1-7.9,0L51,56.1L9.5,15.8c-2.2-2.1-5.7-2.1-7.9,0C0.5,16.8,0,18.2,0,19.6
			c0,1.4,0.5,2.8,1.6,3.8L47,67.6c2.2,2.1,5.7,2.1,7.9,0l45.4-44.1C102.5,21.3,102.5,17.9,100.3,15.8z M49.3,25.1c1,1,2.7,1,3.7,0
			L74.3,4.3c1-1,1-2.6,0-3.6c-1-1-2.7-1-3.7,0L51.1,19.7L31.7,0.7c-1-1-2.7-1-3.7,0c-0.5,0.5-0.8,1.2-0.8,1.8c0,0.7,0.3,1.3,0.8,1.8
			L49.3,25.1z"/>
	</g>
</g>
</svg>
