<?xml version="1.0" encoding="utf-8"?>
<!-- Generator: Adobe Illustrator 17.1.0, SVG Export Plug-In . SVG Version: 6.00 Build 0)  -->
<!DOCTYPE svg PUBLIC "-//W3C//DTD SVG 1.1//EN" "http://www.w3.org/Graphics/SVG/1.1/DTD/svg11.dtd">
<svg version="1.1" id="Слой_1" xmlns="http://www.w3.org/2000/svg" xmlns:xlink="http://www.w3.org/1999/xlink" x="0px" y="0px"
	 viewBox="0 0 32 32" enable-background="new 0 0 32 32" xml:space="preserve">
<g>
	<g>
		<path d="M18.5,18.1c-0.3-0.1-0.8-0.2-1.4-0.2c-0.6,0-1.4,0-2.4,0h-1v5.3h0.3c1.5,0,2.5,0,3.1,0c0.6,0,1.1-0.1,1.7-0.4
			c0.5-0.2,0.9-0.5,1.1-0.9c0.2-0.4,0.4-0.9,0.4-1.4c0-0.7-0.1-1.2-0.4-1.5C19.5,18.6,19.1,18.3,18.5,18.1z M26.7,0H5.3
			C2.4,0,0,2.4,0,5.3v21.3C0,29.6,2.4,32,5.3,32h21.3c2.9,0,5.3-2.4,5.3-5.3V5.3C32,2.4,29.6,0,26.7,0z M25.4,23.3
			c-0.4,0.8-1,1.4-1.7,2c-0.8,0.6-1.8,1.1-2.8,1.3c-1,0.3-2.3,0.4-3.9,0.4H8V6H16c1.7,0,2.9,0.1,3.8,0.2c0.9,0.1,1.6,0.4,2.4,0.7
			c0.8,0.4,1.4,0.9,1.8,1.6c0.4,0.7,0.6,1.5,0.6,2.3c0,1-0.3,1.9-0.8,2.7c-0.5,0.8-1.3,1.4-2.3,1.8v0.1c1.4,0.3,2.5,0.8,3.3,1.7
			c0.8,0.8,1.3,2,1.3,3.4C26,21.6,25.8,22.5,25.4,23.3z M16.4,14.3c0.4,0,0.8-0.1,1.2-0.3c0.5-0.2,0.8-0.5,0.9-0.8
			c0.2-0.3,0.3-0.8,0.3-1.2c0-0.3-0.1-0.7-0.3-1c-0.2-0.4-0.5-0.6-0.9-0.8c-0.4-0.2-0.8-0.2-1.3-0.2c-0.5,0-1.3,0-2.3,0h-0.4v4.4
			h0.7C15.3,14.3,16,14.3,16.4,14.3z"/>
	</g>
</g>
</svg>
